<mxfile host="app.diagrams.net" modified="2024-06-08T01:09:30.260Z" agent="Mozilla/5.0 (Macintosh; Intel Mac OS X 10_15_7) AppleWebKit/605.1.15 (KHTML, like Gecko) Version/17.3.1 Safari/605.1.15" etag="Swi6szXp2sSf2czzFq9b" version="24.5.2" type="device">
  <diagram name="Page-1" id="cwkvDg8hjosmLJtnNl6D">
    <mxGraphModel dx="951" dy="649" grid="1" gridSize="10" guides="1" tooltips="1" connect="1" arrows="1" fold="1" page="1" pageScale="1" pageWidth="850" pageHeight="1100" math="0" shadow="0">
      <root>
        <mxCell id="0" />
        <mxCell id="1" parent="0" />
        <mxCell id="KGehZ3XNXVhJHspjyBJB-1" value="" style="html=1;verticalLabelPosition=bottom;labelBackgroundColor=#ffffff;verticalAlign=top;shadow=0;dashed=0;strokeWidth=1;shape=mxgraph.ios7.misc.iphone;strokeColor=#c0c0c0;" vertex="1" parent="1">
          <mxGeometry x="20" y="299" width="200" height="400" as="geometry" />
        </mxCell>
        <mxCell id="KGehZ3XNXVhJHspjyBJB-2" value="Conversationist" style="text;strokeColor=none;align=center;fillColor=none;html=1;verticalAlign=middle;whiteSpace=wrap;rounded=0;" vertex="1" parent="1">
          <mxGeometry x="90" y="484" width="60" height="30" as="geometry" />
        </mxCell>
        <mxCell id="KGehZ3XNXVhJHspjyBJB-29" style="edgeStyle=orthogonalEdgeStyle;rounded=0;orthogonalLoop=1;jettySize=auto;html=1;exitX=1;exitY=0.5;exitDx=0;exitDy=0;exitPerimeter=0;" edge="1" parent="1" source="KGehZ3XNXVhJHspjyBJB-4" target="KGehZ3XNXVhJHspjyBJB-28">
          <mxGeometry relative="1" as="geometry" />
        </mxCell>
        <mxCell id="KGehZ3XNXVhJHspjyBJB-4" value="" style="sketch=0;points=[[0,0,0],[0.25,0,0],[0.5,0,0],[0.75,0,0],[1,0,0],[0,1,0],[0.25,1,0],[0.5,1,0],[0.75,1,0],[1,1,0],[0,0.25,0],[0,0.5,0],[0,0.75,0],[1,0.25,0],[1,0.5,0],[1,0.75,0]];outlineConnect=0;fontColor=#232F3E;fillColor=#E7157B;strokeColor=#ffffff;dashed=0;verticalLabelPosition=bottom;verticalAlign=top;align=center;html=1;fontSize=12;fontStyle=0;aspect=fixed;shape=mxgraph.aws4.resourceIcon;resIcon=mxgraph.aws4.api_gateway;" vertex="1" parent="1">
          <mxGeometry x="320" y="460" width="78" height="78" as="geometry" />
        </mxCell>
        <mxCell id="KGehZ3XNXVhJHspjyBJB-5" style="edgeStyle=orthogonalEdgeStyle;rounded=0;orthogonalLoop=1;jettySize=auto;html=1;entryX=0;entryY=0.5;entryDx=0;entryDy=0;entryPerimeter=0;" edge="1" parent="1" source="KGehZ3XNXVhJHspjyBJB-1" target="KGehZ3XNXVhJHspjyBJB-4">
          <mxGeometry relative="1" as="geometry" />
        </mxCell>
        <mxCell id="KGehZ3XNXVhJHspjyBJB-6" value="API Gateway" style="text;strokeColor=none;align=center;fillColor=none;html=1;verticalAlign=middle;whiteSpace=wrap;rounded=0;" vertex="1" parent="1">
          <mxGeometry x="329" y="420" width="60" height="30" as="geometry" />
        </mxCell>
        <mxCell id="KGehZ3XNXVhJHspjyBJB-7" value="" style="sketch=0;points=[[0,0,0],[0.25,0,0],[0.5,0,0],[0.75,0,0],[1,0,0],[0,1,0],[0.25,1,0],[0.5,1,0],[0.75,1,0],[1,1,0],[0,0.25,0],[0,0.5,0],[0,0.75,0],[1,0.25,0],[1,0.5,0],[1,0.75,0]];outlineConnect=0;fontColor=#232F3E;fillColor=#ED7100;strokeColor=#ffffff;dashed=0;verticalLabelPosition=bottom;verticalAlign=top;align=center;html=1;fontSize=12;fontStyle=0;aspect=fixed;shape=mxgraph.aws4.resourceIcon;resIcon=mxgraph.aws4.lambda;" vertex="1" parent="1">
          <mxGeometry x="440" y="180" width="78" height="78" as="geometry" />
        </mxCell>
        <mxCell id="KGehZ3XNXVhJHspjyBJB-11" style="edgeStyle=orthogonalEdgeStyle;rounded=0;orthogonalLoop=1;jettySize=auto;html=1;exitX=1;exitY=0;exitDx=0;exitDy=0;exitPerimeter=0;entryX=0;entryY=0.5;entryDx=0;entryDy=0;entryPerimeter=0;" edge="1" parent="1" source="KGehZ3XNXVhJHspjyBJB-4" target="KGehZ3XNXVhJHspjyBJB-7">
          <mxGeometry relative="1" as="geometry" />
        </mxCell>
        <mxCell id="KGehZ3XNXVhJHspjyBJB-12" value="" style="sketch=0;points=[[0,0,0],[0.25,0,0],[0.5,0,0],[0.75,0,0],[1,0,0],[0,1,0],[0.25,1,0],[0.5,1,0],[0.75,1,0],[1,1,0],[0,0.25,0],[0,0.5,0],[0,0.75,0],[1,0.25,0],[1,0.5,0],[1,0.75,0]];outlineConnect=0;fontColor=#232F3E;fillColor=#DD344C;strokeColor=#ffffff;dashed=0;verticalLabelPosition=bottom;verticalAlign=top;align=center;html=1;fontSize=12;fontStyle=0;aspect=fixed;shape=mxgraph.aws4.resourceIcon;resIcon=mxgraph.aws4.cognito;" vertex="1" parent="1">
          <mxGeometry x="570" y="130" width="78" height="78" as="geometry" />
        </mxCell>
        <mxCell id="KGehZ3XNXVhJHspjyBJB-13" style="edgeStyle=orthogonalEdgeStyle;rounded=0;orthogonalLoop=1;jettySize=auto;html=1;exitX=1;exitY=0.5;exitDx=0;exitDy=0;exitPerimeter=0;entryX=0;entryY=0.5;entryDx=0;entryDy=0;entryPerimeter=0;" edge="1" parent="1" source="KGehZ3XNXVhJHspjyBJB-7" target="KGehZ3XNXVhJHspjyBJB-12">
          <mxGeometry relative="1" as="geometry" />
        </mxCell>
        <mxCell id="KGehZ3XNXVhJHspjyBJB-14" value="Cognito" style="text;strokeColor=none;align=center;fillColor=none;html=1;verticalAlign=middle;whiteSpace=wrap;rounded=0;" vertex="1" parent="1">
          <mxGeometry x="579" y="100" width="60" height="30" as="geometry" />
        </mxCell>
        <mxCell id="KGehZ3XNXVhJHspjyBJB-15" value="" style="sketch=0;points=[[0,0,0],[0.25,0,0],[0.5,0,0],[0.75,0,0],[1,0,0],[0,1,0],[0.25,1,0],[0.5,1,0],[0.75,1,0],[1,1,0],[0,0.25,0],[0,0.5,0],[0,0.75,0],[1,0.25,0],[1,0.5,0],[1,0.75,0]];outlineConnect=0;fontColor=#232F3E;fillColor=#C925D1;strokeColor=#ffffff;dashed=0;verticalLabelPosition=bottom;verticalAlign=top;align=center;html=1;fontSize=12;fontStyle=0;aspect=fixed;shape=mxgraph.aws4.resourceIcon;resIcon=mxgraph.aws4.dynamodb;" vertex="1" parent="1">
          <mxGeometry x="570" y="246" width="78" height="78" as="geometry" />
        </mxCell>
        <mxCell id="KGehZ3XNXVhJHspjyBJB-16" style="edgeStyle=orthogonalEdgeStyle;rounded=0;orthogonalLoop=1;jettySize=auto;html=1;exitX=1;exitY=0.5;exitDx=0;exitDy=0;exitPerimeter=0;entryX=0;entryY=0.5;entryDx=0;entryDy=0;entryPerimeter=0;" edge="1" parent="1" source="KGehZ3XNXVhJHspjyBJB-7" target="KGehZ3XNXVhJHspjyBJB-15">
          <mxGeometry relative="1" as="geometry" />
        </mxCell>
        <mxCell id="KGehZ3XNXVhJHspjyBJB-17" value="DynamoDB" style="text;strokeColor=none;align=center;fillColor=none;html=1;verticalAlign=middle;whiteSpace=wrap;rounded=0;" vertex="1" parent="1">
          <mxGeometry x="579" y="216" width="60" height="30" as="geometry" />
        </mxCell>
        <mxCell id="KGehZ3XNXVhJHspjyBJB-18" value="" style="sketch=0;points=[[0,0,0],[0.25,0,0],[0.5,0,0],[0.75,0,0],[1,0,0],[0,1,0],[0.25,1,0],[0.5,1,0],[0.75,1,0],[1,1,0],[0,0.25,0],[0,0.5,0],[0,0.75,0],[1,0.25,0],[1,0.5,0],[1,0.75,0]];outlineConnect=0;fontColor=#232F3E;fillColor=#ED7100;strokeColor=#ffffff;dashed=0;verticalLabelPosition=bottom;verticalAlign=top;align=center;html=1;fontSize=12;fontStyle=0;aspect=fixed;shape=mxgraph.aws4.resourceIcon;resIcon=mxgraph.aws4.lambda;" vertex="1" parent="1">
          <mxGeometry x="440" y="360" width="78" height="78" as="geometry" />
        </mxCell>
        <mxCell id="KGehZ3XNXVhJHspjyBJB-20" value="" style="sketch=0;points=[[0,0,0],[0.25,0,0],[0.5,0,0],[0.75,0,0],[1,0,0],[0,1,0],[0.25,1,0],[0.5,1,0],[0.75,1,0],[1,1,0],[0,0.25,0],[0,0.5,0],[0,0.75,0],[1,0.25,0],[1,0.5,0],[1,0.75,0]];outlineConnect=0;fontColor=#232F3E;fillColor=#01A88D;strokeColor=#ffffff;dashed=0;verticalLabelPosition=bottom;verticalAlign=top;align=center;html=1;fontSize=12;fontStyle=0;aspect=fixed;shape=mxgraph.aws4.resourceIcon;resIcon=mxgraph.aws4.transcribe;" vertex="1" parent="1">
          <mxGeometry x="570" y="360" width="78" height="78" as="geometry" />
        </mxCell>
        <mxCell id="KGehZ3XNXVhJHspjyBJB-21" style="edgeStyle=orthogonalEdgeStyle;rounded=0;orthogonalLoop=1;jettySize=auto;html=1;exitX=1;exitY=0.5;exitDx=0;exitDy=0;exitPerimeter=0;entryX=0;entryY=0.5;entryDx=0;entryDy=0;entryPerimeter=0;" edge="1" parent="1" source="KGehZ3XNXVhJHspjyBJB-18" target="KGehZ3XNXVhJHspjyBJB-20">
          <mxGeometry relative="1" as="geometry" />
        </mxCell>
        <mxCell id="KGehZ3XNXVhJHspjyBJB-22" style="edgeStyle=orthogonalEdgeStyle;rounded=0;orthogonalLoop=1;jettySize=auto;html=1;exitX=0;exitY=0.5;exitDx=0;exitDy=0;exitPerimeter=0;entryX=1;entryY=0.5;entryDx=0;entryDy=0;entryPerimeter=0;" edge="1" parent="1" source="KGehZ3XNXVhJHspjyBJB-20" target="KGehZ3XNXVhJHspjyBJB-18">
          <mxGeometry relative="1" as="geometry" />
        </mxCell>
        <mxCell id="KGehZ3XNXVhJHspjyBJB-23" value="Transcribe" style="text;strokeColor=none;align=center;fillColor=none;html=1;verticalAlign=middle;whiteSpace=wrap;rounded=0;" vertex="1" parent="1">
          <mxGeometry x="579" y="330" width="60" height="30" as="geometry" />
        </mxCell>
        <mxCell id="KGehZ3XNXVhJHspjyBJB-53" style="edgeStyle=orthogonalEdgeStyle;rounded=0;orthogonalLoop=1;jettySize=auto;html=1;exitX=0;exitY=0.5;exitDx=0;exitDy=0;exitPerimeter=0;" edge="1" parent="1" source="KGehZ3XNXVhJHspjyBJB-24" target="KGehZ3XNXVhJHspjyBJB-40">
          <mxGeometry relative="1" as="geometry" />
        </mxCell>
        <mxCell id="KGehZ3XNXVhJHspjyBJB-24" value="" style="sketch=0;points=[[0,0,0],[0.25,0,0],[0.5,0,0],[0.75,0,0],[1,0,0],[0,1,0],[0.25,1,0],[0.5,1,0],[0.75,1,0],[1,1,0],[0,0.25,0],[0,0.5,0],[0,0.75,0],[1,0.25,0],[1,0.5,0],[1,0.75,0]];outlineConnect=0;fontColor=#232F3E;fillColor=#01A88D;strokeColor=#ffffff;dashed=0;verticalLabelPosition=bottom;verticalAlign=top;align=center;html=1;fontSize=12;fontStyle=0;aspect=fixed;shape=mxgraph.aws4.resourceIcon;resIcon=mxgraph.aws4.translate;" vertex="1" parent="1">
          <mxGeometry x="700" y="472" width="78" height="78" as="geometry" />
        </mxCell>
        <mxCell id="KGehZ3XNXVhJHspjyBJB-25" value="Translate" style="text;strokeColor=none;align=center;fillColor=none;html=1;verticalAlign=middle;whiteSpace=wrap;rounded=0;" vertex="1" parent="1">
          <mxGeometry x="709" y="442" width="60" height="30" as="geometry" />
        </mxCell>
        <mxCell id="KGehZ3XNXVhJHspjyBJB-54" style="edgeStyle=orthogonalEdgeStyle;rounded=0;orthogonalLoop=1;jettySize=auto;html=1;exitX=0;exitY=0.5;exitDx=0;exitDy=0;exitPerimeter=0;" edge="1" parent="1" source="KGehZ3XNXVhJHspjyBJB-26" target="KGehZ3XNXVhJHspjyBJB-39">
          <mxGeometry relative="1" as="geometry" />
        </mxCell>
        <mxCell id="KGehZ3XNXVhJHspjyBJB-26" value="" style="sketch=0;points=[[0,0,0],[0.25,0,0],[0.5,0,0],[0.75,0,0],[1,0,0],[0,1,0],[0.25,1,0],[0.5,1,0],[0.75,1,0],[1,1,0],[0,0.25,0],[0,0.5,0],[0,0.75,0],[1,0.25,0],[1,0.5,0],[1,0.75,0]];outlineConnect=0;fontColor=#232F3E;fillColor=#01A88D;strokeColor=#ffffff;dashed=0;verticalLabelPosition=bottom;verticalAlign=top;align=center;html=1;fontSize=12;fontStyle=0;aspect=fixed;shape=mxgraph.aws4.resourceIcon;resIcon=mxgraph.aws4.polly;" vertex="1" parent="1">
          <mxGeometry x="700" y="580" width="78" height="78" as="geometry" />
        </mxCell>
        <mxCell id="KGehZ3XNXVhJHspjyBJB-27" value="Polly" style="text;strokeColor=none;align=center;fillColor=none;html=1;verticalAlign=middle;whiteSpace=wrap;rounded=0;" vertex="1" parent="1">
          <mxGeometry x="709" y="550" width="60" height="30" as="geometry" />
        </mxCell>
        <mxCell id="KGehZ3XNXVhJHspjyBJB-33" style="edgeStyle=orthogonalEdgeStyle;rounded=0;orthogonalLoop=1;jettySize=auto;html=1;exitX=0.5;exitY=1;exitDx=0;exitDy=0;exitPerimeter=0;" edge="1" parent="1" source="KGehZ3XNXVhJHspjyBJB-28" target="KGehZ3XNXVhJHspjyBJB-31">
          <mxGeometry relative="1" as="geometry">
            <Array as="points">
              <mxPoint x="479" y="670" />
              <mxPoint x="609" y="670" />
            </Array>
          </mxGeometry>
        </mxCell>
        <mxCell id="KGehZ3XNXVhJHspjyBJB-28" value="" style="sketch=0;points=[[0,0,0],[0.25,0,0],[0.5,0,0],[0.75,0,0],[1,0,0],[0,1,0],[0.25,1,0],[0.5,1,0],[0.75,1,0],[1,1,0],[0,0.25,0],[0,0.5,0],[0,0.75,0],[1,0.25,0],[1,0.5,0],[1,0.75,0]];outlineConnect=0;fontColor=#232F3E;fillColor=#ED7100;strokeColor=#ffffff;dashed=0;verticalLabelPosition=bottom;verticalAlign=top;align=center;html=1;fontSize=12;fontStyle=0;aspect=fixed;shape=mxgraph.aws4.resourceIcon;resIcon=mxgraph.aws4.lambda;" vertex="1" parent="1">
          <mxGeometry x="440" y="460" width="78" height="78" as="geometry" />
        </mxCell>
        <mxCell id="KGehZ3XNXVhJHspjyBJB-31" value="" style="sketch=0;points=[[0,0,0],[0.25,0,0],[0.5,0,0],[0.75,0,0],[1,0,0],[0,1,0],[0.25,1,0],[0.5,1,0],[0.75,1,0],[1,1,0],[0,0.25,0],[0,0.5,0],[0,0.75,0],[1,0.25,0],[1,0.5,0],[1,0.75,0]];outlineConnect=0;fontColor=#232F3E;fillColor=#7AA116;strokeColor=#ffffff;dashed=0;verticalLabelPosition=bottom;verticalAlign=top;align=center;html=1;fontSize=12;fontStyle=0;aspect=fixed;shape=mxgraph.aws4.resourceIcon;resIcon=mxgraph.aws4.s3;" vertex="1" parent="1">
          <mxGeometry x="570" y="699" width="78" height="78" as="geometry" />
        </mxCell>
        <mxCell id="KGehZ3XNXVhJHspjyBJB-32" value="S3" style="text;strokeColor=none;align=center;fillColor=none;html=1;verticalAlign=middle;whiteSpace=wrap;rounded=0;" vertex="1" parent="1">
          <mxGeometry x="579" y="777" width="60" height="30" as="geometry" />
        </mxCell>
        <mxCell id="KGehZ3XNXVhJHspjyBJB-39" value="" style="sketch=0;points=[[0,0,0],[0.25,0,0],[0.5,0,0],[0.75,0,0],[1,0,0],[0,1,0],[0.25,1,0],[0.5,1,0],[0.75,1,0],[1,1,0],[0,0.25,0],[0,0.5,0],[0,0.75,0],[1,0.25,0],[1,0.5,0],[1,0.75,0]];outlineConnect=0;fontColor=#232F3E;fillColor=#ED7100;strokeColor=#ffffff;dashed=0;verticalLabelPosition=bottom;verticalAlign=top;align=center;html=1;fontSize=12;fontStyle=0;aspect=fixed;shape=mxgraph.aws4.resourceIcon;resIcon=mxgraph.aws4.lambda;" vertex="1" parent="1">
          <mxGeometry x="570" y="580" width="78" height="78" as="geometry" />
        </mxCell>
        <mxCell id="KGehZ3XNXVhJHspjyBJB-40" value="" style="sketch=0;points=[[0,0,0],[0.25,0,0],[0.5,0,0],[0.75,0,0],[1,0,0],[0,1,0],[0.25,1,0],[0.5,1,0],[0.75,1,0],[1,1,0],[0,0.25,0],[0,0.5,0],[0,0.75,0],[1,0.25,0],[1,0.5,0],[1,0.75,0]];outlineConnect=0;fontColor=#232F3E;fillColor=#ED7100;strokeColor=#ffffff;dashed=0;verticalLabelPosition=bottom;verticalAlign=top;align=center;html=1;fontSize=12;fontStyle=0;aspect=fixed;shape=mxgraph.aws4.resourceIcon;resIcon=mxgraph.aws4.lambda;" vertex="1" parent="1">
          <mxGeometry x="570" y="472" width="78" height="78" as="geometry" />
        </mxCell>
        <mxCell id="KGehZ3XNXVhJHspjyBJB-41" style="edgeStyle=orthogonalEdgeStyle;rounded=0;orthogonalLoop=1;jettySize=auto;html=1;exitX=1;exitY=0.5;exitDx=0;exitDy=0;exitPerimeter=0;entryX=0;entryY=0.5;entryDx=0;entryDy=0;entryPerimeter=0;" edge="1" parent="1" source="KGehZ3XNXVhJHspjyBJB-28" target="KGehZ3XNXVhJHspjyBJB-40">
          <mxGeometry relative="1" as="geometry" />
        </mxCell>
        <mxCell id="KGehZ3XNXVhJHspjyBJB-43" style="edgeStyle=orthogonalEdgeStyle;rounded=0;orthogonalLoop=1;jettySize=auto;html=1;exitX=1;exitY=1;exitDx=0;exitDy=0;exitPerimeter=0;entryX=0;entryY=0.25;entryDx=0;entryDy=0;entryPerimeter=0;" edge="1" parent="1" source="KGehZ3XNXVhJHspjyBJB-28" target="KGehZ3XNXVhJHspjyBJB-39">
          <mxGeometry relative="1" as="geometry" />
        </mxCell>
        <mxCell id="KGehZ3XNXVhJHspjyBJB-44" style="edgeStyle=orthogonalEdgeStyle;rounded=0;orthogonalLoop=1;jettySize=auto;html=1;exitX=1;exitY=0.5;exitDx=0;exitDy=0;exitPerimeter=0;entryX=0;entryY=0.5;entryDx=0;entryDy=0;entryPerimeter=0;" edge="1" parent="1" source="KGehZ3XNXVhJHspjyBJB-40" target="KGehZ3XNXVhJHspjyBJB-24">
          <mxGeometry relative="1" as="geometry" />
        </mxCell>
        <mxCell id="KGehZ3XNXVhJHspjyBJB-45" style="edgeStyle=orthogonalEdgeStyle;rounded=0;orthogonalLoop=1;jettySize=auto;html=1;exitX=1;exitY=0.25;exitDx=0;exitDy=0;exitPerimeter=0;entryX=0;entryY=0.5;entryDx=0;entryDy=0;entryPerimeter=0;" edge="1" parent="1" source="KGehZ3XNXVhJHspjyBJB-4" target="KGehZ3XNXVhJHspjyBJB-18">
          <mxGeometry relative="1" as="geometry" />
        </mxCell>
        <mxCell id="KGehZ3XNXVhJHspjyBJB-46" style="edgeStyle=orthogonalEdgeStyle;rounded=0;orthogonalLoop=1;jettySize=auto;html=1;exitX=0;exitY=0.5;exitDx=0;exitDy=0;exitPerimeter=0;entryX=1;entryY=0.25;entryDx=0;entryDy=0;entryPerimeter=0;" edge="1" parent="1" source="KGehZ3XNXVhJHspjyBJB-18" target="KGehZ3XNXVhJHspjyBJB-4">
          <mxGeometry relative="1" as="geometry" />
        </mxCell>
        <mxCell id="KGehZ3XNXVhJHspjyBJB-47" style="edgeStyle=orthogonalEdgeStyle;rounded=0;orthogonalLoop=1;jettySize=auto;html=1;exitX=1;exitY=0.5;exitDx=0;exitDy=0;exitPerimeter=0;entryX=0;entryY=0.5;entryDx=0;entryDy=0;entryPerimeter=0;" edge="1" parent="1" source="KGehZ3XNXVhJHspjyBJB-39" target="KGehZ3XNXVhJHspjyBJB-26">
          <mxGeometry relative="1" as="geometry" />
        </mxCell>
        <mxCell id="KGehZ3XNXVhJHspjyBJB-48" style="edgeStyle=orthogonalEdgeStyle;rounded=0;orthogonalLoop=1;jettySize=auto;html=1;exitX=0.5;exitY=0;exitDx=0;exitDy=0;exitPerimeter=0;entryX=0.5;entryY=1;entryDx=0;entryDy=0;entryPerimeter=0;" edge="1" parent="1" source="KGehZ3XNXVhJHspjyBJB-31" target="KGehZ3XNXVhJHspjyBJB-28">
          <mxGeometry relative="1" as="geometry">
            <Array as="points">
              <mxPoint x="609" y="670" />
              <mxPoint x="479" y="670" />
            </Array>
          </mxGeometry>
        </mxCell>
        <mxCell id="KGehZ3XNXVhJHspjyBJB-50" style="edgeStyle=orthogonalEdgeStyle;rounded=0;orthogonalLoop=1;jettySize=auto;html=1;exitX=0;exitY=0.5;exitDx=0;exitDy=0;exitPerimeter=0;entryX=1;entryY=0.5;entryDx=0;entryDy=0;entryPerimeter=0;" edge="1" parent="1" source="KGehZ3XNXVhJHspjyBJB-28" target="KGehZ3XNXVhJHspjyBJB-4">
          <mxGeometry relative="1" as="geometry" />
        </mxCell>
        <mxCell id="KGehZ3XNXVhJHspjyBJB-51" style="edgeStyle=orthogonalEdgeStyle;rounded=0;orthogonalLoop=1;jettySize=auto;html=1;exitX=0.5;exitY=1;exitDx=0;exitDy=0;exitPerimeter=0;entryX=1;entryY=0.25;entryDx=0;entryDy=0;entryPerimeter=0;" edge="1" parent="1" source="KGehZ3XNXVhJHspjyBJB-26" target="KGehZ3XNXVhJHspjyBJB-31">
          <mxGeometry relative="1" as="geometry" />
        </mxCell>
        <mxCell id="KGehZ3XNXVhJHspjyBJB-52" style="edgeStyle=orthogonalEdgeStyle;rounded=0;orthogonalLoop=1;jettySize=auto;html=1;exitX=1;exitY=0.5;exitDx=0;exitDy=0;exitPerimeter=0;entryX=1;entryY=0.75;entryDx=0;entryDy=0;entryPerimeter=0;" edge="1" parent="1" source="KGehZ3XNXVhJHspjyBJB-24" target="KGehZ3XNXVhJHspjyBJB-31">
          <mxGeometry relative="1" as="geometry" />
        </mxCell>
      </root>
    </mxGraphModel>
  </diagram>
</mxfile>
